<svg width="50" height="26" viewBox="0 0 50 26" fill="none" xmlns="http://www.w3.org/2000/svg">
<path fill-rule="evenodd" clip-rule="evenodd" d="M0 24C0 23.1716 0.671571 22.5 1.5 22.5H48C48.8284 22.5 49.5 23.1716 49.5 24V24C49.5 24.8284 48.8284 25.5 48 25.5H1.5C0.671573 25.5 0 24.8284 0 24V24Z" fill="#F7FBFB"/>
<path fill-rule="evenodd" clip-rule="evenodd" d="M0 13C0 12.1716 0.671571 11.5 1.5 11.5H48C48.8284 11.5 49.5 12.1716 49.5 13V13C49.5 13.8284 48.8284 14.5 48 14.5H1.5C0.671573 14.5 0 13.8284 0 13V13Z" fill="#F7FBFB"/>
<path fill-rule="evenodd" clip-rule="evenodd" d="M0 2C0 1.17157 0.671571 0.5 1.5 0.5H48C48.8284 0.5 49.5 1.17157 49.5 2V2C49.5 2.82843 48.8284 3.5 48 3.5H1.5C0.671573 3.5 0 2.82843 0 2V2Z" fill="#F7FBFB"/>
</svg>
